<?xml version="1.0" standalone="no"?>
<!DOCTYPE svg PUBLIC "-//W3C//DTD SVG 20010904//EN"
 "http://www.w3.org/TR/2001/REC-SVG-20010904/DTD/svg10.dtd">
<svg version="1.0" xmlns="http://www.w3.org/2000/svg"
 width="312.000000pt" height="312.000000pt" viewBox="0 0 312.000000 312.000000"
 preserveAspectRatio="xMidYMid meet">
<metadata>
Created by potrace 1.11, written by Peter Selinger 2001-2013
</metadata>
<g transform="translate(0.000000,312.000000) scale(0.100000,-0.100000)"
fill="#000000" stroke="none">
<path d="M319 3112 c-1 -4 -2 -634 -3 -1399 -1 -1116 2 -1393 12 -1393 7 0 20
4 30 9 9 5 53 26 97 47 148 70 290 161 420 267 l30 25 2 959 c1 527 2 963 2
969 1 7 93 10 299 8 163 -1 297 -2 297 -4 0 -1 14 -3 30 -5 29 -3 54 -7 120
-20 84 -16 295 -97 303 -117 2 -4 9 -8 16 -8 39 0 232 -172 291 -260 16 -25
32 -47 35 -50 14 -14 87 -174 95 -210 1 -3 7 -24 13 -47 30 -101 40 -202 37
-358 -1 -88 -5 -171 -8 -185 -3 -14 -8 -44 -11 -68 -11 -82 -64 -262 -81 -274
-5 -4 -7 -8 -2 -8 13 0 -89 -187 -120 -218 -7 -7 -13 -17 -13 -22 0 -4 -38
-46 -83 -93 -114 -115 -253 -208 -403 -268 -75 -30 -216 -75 -259 -83 -11 -2
-36 -7 -55 -11 -19 -3 -44 -8 -55 -10 -11 -2 -20 -4 -20 -6 0 -3 -47 -7 -170
-14 -66 -4 -116 -3 -112 2 5 4 12 8 15 8 26 1 179 74 184 88 6 14 1 186 -6
237 -2 19 -7 60 -11 90 -4 30 -8 56 -10 58 -1 1 -20 -21 -42 -50 -39 -51 -105
-120 -168 -174 -92 -78 -338 -222 -480 -280 -33 -14 -69 -29 -80 -35 -39 -18
-222 -77 -298 -95 -70 -17 -96 -32 -64 -36 14 -1 30 -5 37 -8 8 -3 105 -16
185 -24 17 -2 46 -6 65 -9 35 -7 72 -10 235 -24 109 -9 598 -9 710 0 119 9
230 22 230 27 0 0 18 3 40 5 22 2 51 7 65 10 44 10 94 18 113 19 9 0 17 5 17
10 0 5 3 7 6 4 3 -3 31 1 62 9 31 8 64 17 72 18 29 7 165 53 216 73 127 51
334 162 342 183 2 5 8 9 14 9 33 0 250 212 305 297 10 15 22 33 28 39 6 6 22
33 35 60 14 27 31 55 38 62 6 7 12 22 12 32 0 10 4 20 9 22 12 5 76 190 86
253 2 11 4 20 5 20 1 0 3 11 6 25 2 14 6 39 9 55 17 93 20 146 20 300 0 94 -3
190 -7 215 -4 25 -10 59 -12 75 -62 410 -289 775 -626 1005 -148 101 -400 207
-555 235 -16 2 -41 7 -55 10 -14 4 -37 8 -53 10 -15 2 -42 7 -60 10 -45 9
-1367 15 -1368 7z"/>
</g>
</svg>
